# Blender v2.81 (sub 16) OBJ File: 'ng_portal_01.blend'
# www.blender.org
mtllib ng_portal_occ_03.mtl
o occ_obj_Cube.000
v -0.734407 0.107319 -0.002292
v -0.731407 0.104319 -0.002292
v -0.734005 0.105819 -0.002292
v -0.732907 0.104721 -0.002292
v -0.731407 2.095535 -0.002292
v -0.734407 2.092535 -0.002292
v -0.732907 2.095133 -0.002292
v -0.734005 2.094035 -0.002292
v 0.731407 0.104319 -0.002292
v 0.734407 0.107319 -0.002292
v 0.732907 0.104721 -0.002292
v 0.734005 0.105819 -0.002292
v 0.734407 2.092535 -0.002292
v 0.731407 2.095535 -0.002292
v 0.734005 2.094035 -0.002292
v 0.732907 2.095133 -0.002292
v -0.734407 0.107319 6.050773
v -0.731407 0.107319 6.053772
v -0.731407 0.104319 6.050773
v -0.734006 0.107319 6.052271
v -0.734006 0.105821 6.050774
v -0.733617 0.105884 6.052208
v -0.731407 0.105821 6.053373
v -0.732905 0.107319 6.053373
v -0.732842 0.105884 6.052983
v -0.732905 0.104720 6.050774
v -0.731407 0.104720 6.052271
v -0.732842 0.105109 6.052208
v -0.734407 2.092535 6.050773
v -0.731407 2.095535 6.050773
v -0.731407 2.092535 6.053772
v -0.734006 2.094033 6.050773
v -0.734006 2.092535 6.052270
v -0.733617 2.093970 6.052207
v -0.731407 2.095134 6.052270
v -0.732905 2.095134 6.050773
v -0.732842 2.094745 6.052207
v -0.732905 2.092535 6.053372
v -0.731407 2.094033 6.053372
v -0.732842 2.093970 6.052982
v 0.734407 0.107319 6.050773
v 0.731407 0.104319 6.050773
v 0.731407 0.107319 6.053772
v 0.734006 0.105821 6.050773
v 0.734006 0.107319 6.052270
v 0.733617 0.105884 6.052207
v 0.731407 0.104720 6.052270
v 0.732905 0.104720 6.050773
v 0.732842 0.105109 6.052207
v 0.732905 0.107319 6.053372
v 0.731407 0.105821 6.053372
v 0.732842 0.105884 6.052982
v 0.734407 2.092535 6.050773
v 0.731407 2.092535 6.053772
v 0.731407 2.095535 6.050773
v 0.734006 2.092535 6.052271
v 0.734006 2.094033 6.050774
v 0.733617 2.093970 6.052208
v 0.731407 2.094033 6.053373
v 0.732905 2.092535 6.053373
v 0.732842 2.093970 6.052983
v 0.732905 2.095134 6.050774
v 0.731407 2.095134 6.052271
v 0.732842 2.094745 6.052208
vt 0.000000 0.000000
vt 0.000000 0.000000
vt 0.000000 0.000000
vt 0.000000 0.000000
vt 0.000000 0.000000
vt 0.000000 0.000000
vt 0.000000 0.000000
vt 0.000000 0.000000
vt 0.000000 0.000000
vt 0.000000 0.000000
vt 0.000000 0.000000
vt 0.000000 0.000000
vt 0.000000 0.000000
vt 0.000000 0.000000
vt 0.000000 0.000000
vt 0.000000 0.000000
vt 0.000000 0.000000
vt 0.000000 0.000000
vt 0.000000 0.000000
vt 0.000000 0.000000
vt 0.000000 0.000000
vt 0.000000 0.000000
vt 0.000000 0.000000
vt 0.000000 0.000000
vt 0.000000 0.000000
vt 0.000000 0.000000
vt 0.000000 0.000000
vt 0.000000 0.000000
vt 0.000000 0.000000
vt 0.000000 0.000000
vt 0.000000 0.000000
vt 0.000000 0.000000
vt 0.000000 0.000000
vt 0.000000 0.000000
vt 0.000000 0.000000
vt 0.000000 0.000000
vt 0.000000 0.000000
vt 0.000000 0.000000
vt 0.000000 0.000000
vt 0.000000 0.000000
vt 0.000000 0.000000
vt 0.000000 0.000000
vt 0.000000 0.000000
vt 0.000000 0.000000
vt 0.000000 0.000000
vt 0.000000 0.000000
vt 0.000000 0.000000
vt 0.000000 0.000000
vt 0.000000 0.000000
vt 0.000000 0.000000
vt 0.000000 0.000000
vt 0.000000 0.000000
vt 0.000000 0.000000
vt 0.000000 0.000000
vt 0.000000 0.000000
vt 0.000000 0.000000
vt 0.000000 0.000000
vt 0.000000 0.000000
vt 0.000000 0.000000
vt 0.000000 0.000000
vt 0.000000 0.000000
vt 0.000000 0.000000
vt 0.000000 0.000000
vt 0.000000 0.000000
vn 0.0000 -1.0000 0.0000
vn 0.0000 1.0000 0.0000
vn -1.0000 0.0000 0.0000
vn 0.0000 0.0000 -1.0000
vn 0.9318 0.2566 -0.2567
vn 0.6901 0.2179 -0.6902
vn 0.2568 0.2563 -0.9319
vn 0.2180 0.6902 -0.6900
vn 0.2565 0.9319 -0.2566
vn 0.6901 0.6901 -0.2178
vn 0.5777 0.5772 -0.5771
vn 0.9318 -0.2566 -0.2567
vn 0.6901 -0.6901 -0.2178
vn 0.2566 -0.9319 -0.2565
vn 0.2179 -0.6901 -0.6902
vn 0.2568 -0.2566 -0.9318
vn 0.6901 -0.2179 -0.6901
vn 0.5771 -0.5775 -0.5775
vn -0.9318 0.2567 -0.2568
vn -0.6902 0.6901 -0.2178
vn -0.2566 0.9318 -0.2566
vn -0.2180 0.6902 -0.6900
vn -0.2569 0.2566 -0.9318
vn -0.6903 0.2178 -0.6900
vn -0.5771 0.5775 -0.5775
vn -0.9318 -0.2566 -0.2567
vn -0.6904 -0.2178 -0.6899
vn -0.2565 -0.2564 -0.9319
vn -0.2177 -0.6901 -0.6902
vn -0.2566 -0.9319 -0.2564
vn -0.6900 -0.6902 -0.2178
vn -0.5777 -0.5771 -0.5772
vn 0.9660 -0.0000 -0.2584
vn 0.7072 -0.0000 -0.7070
vn 0.2578 -0.0000 -0.9662
vn -0.9660 0.0000 -0.2584
vn -0.7072 0.0000 -0.7070
vn -0.2578 0.0000 -0.9662
vn -0.0000 0.2580 -0.9661
vn -0.0000 0.7072 -0.7070
vn -0.0000 0.9660 -0.2584
vn 0.0000 -0.2580 -0.9661
vn 0.0000 -0.7072 -0.7070
vn 0.0000 -0.9660 -0.2584
vn -0.9660 0.2586 0.0000
vn -0.7071 0.7071 -0.0000
vn -0.2586 0.9660 0.0000
vn 0.9660 0.2586 0.0000
vn 0.7071 0.7071 -0.0000
vn 0.2586 0.9660 0.0000
vn 0.9660 -0.2586 0.0000
vn 0.7071 -0.7071 -0.0000
vn 0.2587 -0.9660 0.0000
vn -0.9660 -0.2586 0.0000
vn -0.7071 -0.7071 -0.0000
vn -0.2587 -0.9660 0.0000
vn 1.0000 0.0000 0.0000
usemtl border
s off
f 5/1/1 14/2/1 55/3/1 30/4/1
f 9/5/2 2/6/2 19/7/2 42/8/2
f 10/9/3 41/10/3 53/11/3 13/12/3
f 18/13/4 31/14/4 54/15/4 43/16/4
f 17/17/5 20/18/5 22/19/5 21/20/5
f 20/18/6 24/21/6 25/22/6 22/19/6
f 18/13/7 23/23/7 25/22/7 24/21/7
f 23/23/8 27/24/8 28/25/8 25/22/8
f 19/7/9 26/26/9 28/25/9 27/24/9
f 26/26/10 21/20/10 22/19/10 28/25/10
f 22/19/11 25/22/11 28/25/11
f 29/27/12 32/28/12 34/29/12 33/30/12
f 32/28/13 36/31/13 37/32/13 34/29/13
f 30/4/14 35/33/14 37/32/14 36/31/14
f 35/33/15 39/34/15 40/35/15 37/32/15
f 31/14/16 38/36/16 40/35/16 39/34/16
f 38/36/17 33/30/17 34/29/17 40/35/17
f 34/29/18 37/32/18 40/35/18
f 41/10/19 44/37/19 46/38/19 45/39/19
f 44/37/20 48/40/20 49/41/20 46/38/20
f 42/8/21 47/42/21 49/41/21 48/40/21
f 47/42/22 51/43/22 52/44/22 49/41/22
f 43/16/23 50/45/23 52/44/23 51/43/23
f 50/45/24 45/39/24 46/38/24 52/44/24
f 46/38/25 49/41/25 52/44/25
f 53/11/26 56/46/26 58/47/26 57/48/26
f 56/46/27 60/49/27 61/50/27 58/47/27
f 54/15/28 59/51/28 61/50/28 60/49/28
f 59/51/29 63/52/29 64/53/29 61/50/29
f 55/3/30 62/54/30 64/53/30 63/52/30
f 62/54/31 57/48/31 58/47/31 64/53/31
f 58/47/32 61/50/32 64/53/32
f 17/17/33 29/27/33 33/30/33 20/18/33
f 20/18/34 33/30/34 38/36/34 24/21/34
f 24/21/35 38/36/35 31/14/35 18/13/35
f 53/11/36 41/10/36 45/39/36 56/46/36
f 56/46/37 45/39/37 50/45/37 60/49/37
f 60/49/38 50/45/38 43/16/38 54/15/38
f 18/13/39 43/16/39 51/43/39 23/23/39
f 23/23/40 51/43/40 47/42/40 27/24/40
f 27/24/41 47/42/41 42/8/41 19/7/41
f 54/15/42 31/14/42 39/34/42 59/51/42
f 59/51/43 39/34/43 35/33/43 63/52/43
f 63/52/44 35/33/44 30/4/44 55/3/44
f 41/10/45 10/9/45 12/55/45 44/37/45
f 44/37/46 12/55/46 11/56/46 48/40/46
f 48/40/47 11/56/47 9/5/47 42/8/47
f 1/57/48 17/17/48 21/20/48 3/58/48
f 3/58/49 21/20/49 26/26/49 4/59/49
f 4/59/50 26/26/50 19/7/50 2/6/50
f 29/27/51 6/60/51 8/61/51 32/28/51
f 32/28/52 8/61/52 7/62/52 36/31/52
f 36/31/53 7/62/53 5/1/53 30/4/53
f 13/12/54 53/11/54 57/48/54 15/63/54
f 15/63/55 57/48/55 62/54/55 16/64/55
f 16/64/56 62/54/56 55/3/56 14/2/56
f 6/60/57 29/27/57 17/17/57 1/57/57
