# Blender v2.81 (sub 16) OBJ File: 'ng_portal_03.blend'
# www.blender.org
mtllib oc_room_01.mtl
o oc_room_Cube.002
v -0.810208 0.000347 0.064861
v -0.810208 2.200347 0.064861
v 0.810208 2.200347 0.064861
v 0.810208 0.000347 0.064861
v -7.777060 -0.621770 0.064861
v -7.777060 2.822464 0.064861
v 7.777060 2.822464 0.064861
v 7.777060 -0.621770 0.064861
v -7.777060 -0.621770 9.689400
v -7.777060 2.822464 9.689400
v 7.777060 2.822464 9.689400
v 7.777060 -0.621770 9.689400
vt 0.000000 0.000000
vt 0.000000 0.000000
vt 0.000000 0.000000
vt 0.000000 0.000000
vt 0.000000 0.000000
vt 0.000000 0.000000
vt 0.000000 0.000000
vt 0.000000 0.000000
vt 0.000000 0.000000
vt 0.000000 0.000000
vt 0.000000 0.000000
vt 0.000000 0.000000
vn 0.0000 0.0000 1.0000
vn 0.0000 1.0000 0.0000
vn 1.0000 0.0000 0.0000
vn 0.0000 -1.0000 0.0000
vn -1.0000 0.0000 0.0000
vn 0.0000 0.0000 -1.0000
usemtl border
s off
f 1/1/1 5/2/1 8/3/1 4/4/1
f 2/5/1 6/6/1 5/2/1 1/1/1
f 3/7/1 7/8/1 6/6/1 2/5/1
f 4/4/1 8/3/1 7/8/1 3/7/1
f 5/2/2 9/9/2 12/10/2 8/3/2
f 6/6/3 10/11/3 9/9/3 5/2/3
f 7/8/4 11/12/4 10/11/4 6/6/4
f 8/3/5 12/10/5 11/12/5 7/8/5
f 9/9/6 10/11/6 11/12/6 12/10/6
